%TF.GenerationSoftware,KiCad,Pcbnew,7.0.7*%
%TF.CreationDate,2024-07-20T22:06:39+09:00*%
%TF.ProjectId,l298n_copy,6c323938-6e5f-4636-9f70-792e6b696361,rev?*%
%TF.SameCoordinates,Original*%
%TF.FileFunction,Drillmap*%
%TF.FilePolarity,Positive*%
%FSLAX45Y45*%
G04 Gerber Fmt 4.5, Leading zero omitted, Abs format (unit mm)*
G04 Created by KiCad (PCBNEW 7.0.7) date 2024-07-20 22:06:39*
%MOMM*%
%LPD*%
G01*
G04 APERTURE LIST*
%ADD10C,0.100000*%
%ADD11C,0.200000*%
%ADD12C,0.040000*%
%ADD13C,0.140000*%
G04 APERTURE END LIST*
D10*
X11400000Y-7000000D02*
X7000000Y-7000000D01*
X7000000Y-7000000D02*
X7000000Y-11400000D01*
X11400000Y-11400000D02*
X11400000Y-7000000D01*
X11270000Y-7283000D02*
G75*
G03*
X11270000Y-7283000I-150000J0D01*
G01*
X7428000Y-11126000D02*
G75*
G03*
X7428000Y-11126000I-150000J0D01*
G01*
X7000000Y-11400000D02*
X11400000Y-11400000D01*
X11270000Y-11118000D02*
G75*
G03*
X11270000Y-11118000I-150000J0D01*
G01*
X7438000Y-7284000D02*
G75*
G03*
X7438000Y-7284000I-150000J0D01*
G01*
D11*
D12*
X7509000Y-9672000D02*
X7549000Y-9712000D01*
X7549000Y-9672000D02*
X7509000Y-9712000D01*
X7890000Y-10282000D02*
X7930000Y-10322000D01*
X7930000Y-10282000D02*
X7890000Y-10322000D01*
X7959500Y-9028000D02*
X7999500Y-9068000D01*
X7999500Y-9028000D02*
X7959500Y-9068000D01*
X8124500Y-9028000D02*
X8164500Y-9068000D01*
X8164500Y-9028000D02*
X8124500Y-9068000D01*
X8134000Y-8688000D02*
X8174000Y-8728000D01*
X8174000Y-8688000D02*
X8134000Y-8728000D01*
X8206000Y-9486750D02*
X8246000Y-9526750D01*
X8246000Y-9486750D02*
X8206000Y-9526750D01*
X8250000Y-8844500D02*
X8290000Y-8884500D01*
X8290000Y-8844500D02*
X8250000Y-8884500D01*
X8466000Y-9736000D02*
X8506000Y-9776000D01*
X8506000Y-9736000D02*
X8466000Y-9776000D01*
X8471000Y-9335000D02*
X8511000Y-9375000D01*
X8511000Y-9335000D02*
X8471000Y-9375000D01*
X8605000Y-8397000D02*
X8645000Y-8437000D01*
X8645000Y-8397000D02*
X8605000Y-8437000D01*
X8671000Y-9743000D02*
X8711000Y-9783000D01*
X8711000Y-9743000D02*
X8671000Y-9783000D01*
X8944000Y-8441000D02*
X8984000Y-8481000D01*
X8984000Y-8441000D02*
X8944000Y-8481000D01*
X8966000Y-8933750D02*
X9006000Y-8973750D01*
X9006000Y-8933750D02*
X8966000Y-8973750D01*
X9023000Y-10148000D02*
X9063000Y-10188000D01*
X9063000Y-10148000D02*
X9023000Y-10188000D01*
X9147500Y-9570000D02*
X9187500Y-9610000D01*
X9187500Y-9570000D02*
X9147500Y-9610000D01*
X9259000Y-8607000D02*
X9299000Y-8647000D01*
X9299000Y-8607000D02*
X9259000Y-8647000D01*
X9400000Y-10718250D02*
X9440000Y-10758250D01*
X9440000Y-10718250D02*
X9400000Y-10758250D01*
X9432000Y-7632002D02*
X9472000Y-7672002D01*
X9472000Y-7632002D02*
X9432000Y-7672002D01*
X9752000Y-10719000D02*
X9792000Y-10759000D01*
X9792000Y-10719000D02*
X9752000Y-10759000D01*
X9786000Y-7633000D02*
X9826000Y-7673000D01*
X9826000Y-7633000D02*
X9786000Y-7673000D01*
X10020000Y-8598000D02*
X10060000Y-8638000D01*
X10060000Y-8598000D02*
X10020000Y-8638000D01*
X10074000Y-10415000D02*
X10114000Y-10455000D01*
X10114000Y-10415000D02*
X10074000Y-10455000D01*
X10110000Y-10718250D02*
X10150000Y-10758250D01*
X10150000Y-10718250D02*
X10110000Y-10758250D01*
X10132000Y-7632000D02*
X10172000Y-7672000D01*
X10172000Y-7632000D02*
X10132000Y-7672000D01*
X10465000Y-10718000D02*
X10505000Y-10758000D01*
X10505000Y-10718000D02*
X10465000Y-10758000D01*
X10486000Y-7628000D02*
X10526000Y-7668000D01*
X10526000Y-7628000D02*
X10486000Y-7668000D01*
X10486000Y-9973000D02*
X10526000Y-10013000D01*
X10526000Y-9973000D02*
X10486000Y-10013000D01*
X10689000Y-8479000D02*
X10729000Y-8519000D01*
X10729000Y-8479000D02*
X10689000Y-8519000D01*
X10910000Y-8132000D02*
X10950000Y-8172000D01*
X10950000Y-8132000D02*
X10910000Y-8172000D01*
X10914000Y-8713000D02*
X10954000Y-8753000D01*
X10954000Y-8713000D02*
X10914000Y-8753000D01*
D10*
X7316000Y-9267000D02*
G75*
G03*
X7316000Y-9267000I-50000J0D01*
G01*
X7316000Y-9561000D02*
G75*
G03*
X7316000Y-9561000I-50000J0D01*
G01*
X7316000Y-9815000D02*
G75*
G03*
X7316000Y-9815000I-50000J0D01*
G01*
X7316000Y-10069000D02*
G75*
G03*
X7316000Y-10069000I-50000J0D01*
G01*
X7316000Y-10323000D02*
G75*
G03*
X7316000Y-10323000I-50000J0D01*
G01*
X7316000Y-10641000D02*
G75*
G03*
X7316000Y-10641000I-50000J0D01*
G01*
X7570000Y-9267000D02*
G75*
G03*
X7570000Y-9267000I-50000J0D01*
G01*
X7570000Y-10641000D02*
G75*
G03*
X7570000Y-10641000I-50000J0D01*
G01*
X8214000Y-8149500D02*
G75*
G03*
X8214000Y-8149500I-50000J0D01*
G01*
X8214000Y-8403500D02*
G75*
G03*
X8214000Y-8403500I-50000J0D01*
G01*
X9789000Y-8371000D02*
G75*
G03*
X9789000Y-8371000I-50000J0D01*
G01*
X9789000Y-8625000D02*
G75*
G03*
X9789000Y-8625000I-50000J0D01*
G01*
X9789000Y-8879000D02*
G75*
G03*
X9789000Y-8879000I-50000J0D01*
G01*
X9789000Y-9133000D02*
G75*
G03*
X9789000Y-9133000I-50000J0D01*
G01*
X9789000Y-9387000D02*
G75*
G03*
X9789000Y-9387000I-50000J0D01*
G01*
X9789000Y-9641000D02*
G75*
G03*
X9789000Y-9641000I-50000J0D01*
G01*
X9789000Y-9895000D02*
G75*
G03*
X9789000Y-9895000I-50000J0D01*
G01*
X9789000Y-10149000D02*
G75*
G03*
X9789000Y-10149000I-50000J0D01*
G01*
X10297000Y-8498000D02*
G75*
G03*
X10297000Y-8498000I-50000J0D01*
G01*
X10297000Y-8752000D02*
G75*
G03*
X10297000Y-8752000I-50000J0D01*
G01*
X10297000Y-9006000D02*
G75*
G03*
X10297000Y-9006000I-50000J0D01*
G01*
X10297000Y-9260000D02*
G75*
G03*
X10297000Y-9260000I-50000J0D01*
G01*
X10297000Y-9514000D02*
G75*
G03*
X10297000Y-9514000I-50000J0D01*
G01*
X10297000Y-9768000D02*
G75*
G03*
X10297000Y-9768000I-50000J0D01*
G01*
X10297000Y-10022000D02*
G75*
G03*
X10297000Y-10022000I-50000J0D01*
G01*
D13*
X7492000Y-7734000D02*
X7492000Y-7874000D01*
X7422000Y-7804000D02*
X7562000Y-7804000D01*
X7492000Y-8234000D02*
X7492000Y-8374000D01*
X7422000Y-8304000D02*
X7562000Y-8304000D01*
X7492000Y-8734000D02*
X7492000Y-8874000D01*
X7422000Y-8804000D02*
X7562000Y-8804000D01*
X8256000Y-7362750D02*
X8256000Y-7502750D01*
X8186000Y-7432750D02*
X8326000Y-7432750D01*
X8293000Y-10886000D02*
X8293000Y-11026000D01*
X8223000Y-10956000D02*
X8363000Y-10956000D01*
X8756000Y-7362750D02*
X8756000Y-7502750D01*
X8686000Y-7432750D02*
X8826000Y-7432750D01*
X8793000Y-10886000D02*
X8793000Y-11026000D01*
X8723000Y-10956000D02*
X8863000Y-10956000D01*
D11*
X7255777Y-11716484D02*
X7255777Y-11516484D01*
X7255777Y-11516484D02*
X7303396Y-11516484D01*
X7303396Y-11516484D02*
X7331967Y-11526008D01*
X7331967Y-11526008D02*
X7351015Y-11545055D01*
X7351015Y-11545055D02*
X7360539Y-11564103D01*
X7360539Y-11564103D02*
X7370062Y-11602198D01*
X7370062Y-11602198D02*
X7370062Y-11630769D01*
X7370062Y-11630769D02*
X7360539Y-11668865D01*
X7360539Y-11668865D02*
X7351015Y-11687912D01*
X7351015Y-11687912D02*
X7331967Y-11706960D01*
X7331967Y-11706960D02*
X7303396Y-11716484D01*
X7303396Y-11716484D02*
X7255777Y-11716484D01*
X7455777Y-11716484D02*
X7455777Y-11583150D01*
X7455777Y-11621246D02*
X7465301Y-11602198D01*
X7465301Y-11602198D02*
X7474824Y-11592674D01*
X7474824Y-11592674D02*
X7493872Y-11583150D01*
X7493872Y-11583150D02*
X7512920Y-11583150D01*
X7579586Y-11716484D02*
X7579586Y-11583150D01*
X7579586Y-11516484D02*
X7570062Y-11526008D01*
X7570062Y-11526008D02*
X7579586Y-11535531D01*
X7579586Y-11535531D02*
X7589110Y-11526008D01*
X7589110Y-11526008D02*
X7579586Y-11516484D01*
X7579586Y-11516484D02*
X7579586Y-11535531D01*
X7703396Y-11716484D02*
X7684348Y-11706960D01*
X7684348Y-11706960D02*
X7674824Y-11687912D01*
X7674824Y-11687912D02*
X7674824Y-11516484D01*
X7808158Y-11716484D02*
X7789110Y-11706960D01*
X7789110Y-11706960D02*
X7779586Y-11687912D01*
X7779586Y-11687912D02*
X7779586Y-11516484D01*
X8036729Y-11716484D02*
X8036729Y-11516484D01*
X8036729Y-11516484D02*
X8103396Y-11659341D01*
X8103396Y-11659341D02*
X8170062Y-11516484D01*
X8170062Y-11516484D02*
X8170062Y-11716484D01*
X8351015Y-11716484D02*
X8351015Y-11611722D01*
X8351015Y-11611722D02*
X8341491Y-11592674D01*
X8341491Y-11592674D02*
X8322443Y-11583150D01*
X8322443Y-11583150D02*
X8284348Y-11583150D01*
X8284348Y-11583150D02*
X8265301Y-11592674D01*
X8351015Y-11706960D02*
X8331967Y-11716484D01*
X8331967Y-11716484D02*
X8284348Y-11716484D01*
X8284348Y-11716484D02*
X8265301Y-11706960D01*
X8265301Y-11706960D02*
X8255777Y-11687912D01*
X8255777Y-11687912D02*
X8255777Y-11668865D01*
X8255777Y-11668865D02*
X8265301Y-11649817D01*
X8265301Y-11649817D02*
X8284348Y-11640293D01*
X8284348Y-11640293D02*
X8331967Y-11640293D01*
X8331967Y-11640293D02*
X8351015Y-11630769D01*
X8446253Y-11583150D02*
X8446253Y-11783150D01*
X8446253Y-11592674D02*
X8465301Y-11583150D01*
X8465301Y-11583150D02*
X8503396Y-11583150D01*
X8503396Y-11583150D02*
X8522444Y-11592674D01*
X8522444Y-11592674D02*
X8531967Y-11602198D01*
X8531967Y-11602198D02*
X8541491Y-11621246D01*
X8541491Y-11621246D02*
X8541491Y-11678388D01*
X8541491Y-11678388D02*
X8531967Y-11697436D01*
X8531967Y-11697436D02*
X8522444Y-11706960D01*
X8522444Y-11706960D02*
X8503396Y-11716484D01*
X8503396Y-11716484D02*
X8465301Y-11716484D01*
X8465301Y-11716484D02*
X8446253Y-11706960D01*
X8627205Y-11697436D02*
X8636729Y-11706960D01*
X8636729Y-11706960D02*
X8627205Y-11716484D01*
X8627205Y-11716484D02*
X8617682Y-11706960D01*
X8617682Y-11706960D02*
X8627205Y-11697436D01*
X8627205Y-11697436D02*
X8627205Y-11716484D01*
X8627205Y-11592674D02*
X8636729Y-11602198D01*
X8636729Y-11602198D02*
X8627205Y-11611722D01*
X8627205Y-11611722D02*
X8617682Y-11602198D01*
X8617682Y-11602198D02*
X8627205Y-11592674D01*
X8627205Y-11592674D02*
X8627205Y-11611722D01*
D12*
X6955000Y-12025000D02*
X6995000Y-12065000D01*
X6995000Y-12025000D02*
X6955000Y-12065000D01*
D11*
X7293872Y-11936484D02*
X7312920Y-11936484D01*
X7312920Y-11936484D02*
X7331967Y-11946008D01*
X7331967Y-11946008D02*
X7341491Y-11955531D01*
X7341491Y-11955531D02*
X7351015Y-11974579D01*
X7351015Y-11974579D02*
X7360539Y-12012674D01*
X7360539Y-12012674D02*
X7360539Y-12060293D01*
X7360539Y-12060293D02*
X7351015Y-12098388D01*
X7351015Y-12098388D02*
X7341491Y-12117436D01*
X7341491Y-12117436D02*
X7331967Y-12126960D01*
X7331967Y-12126960D02*
X7312920Y-12136484D01*
X7312920Y-12136484D02*
X7293872Y-12136484D01*
X7293872Y-12136484D02*
X7274824Y-12126960D01*
X7274824Y-12126960D02*
X7265301Y-12117436D01*
X7265301Y-12117436D02*
X7255777Y-12098388D01*
X7255777Y-12098388D02*
X7246253Y-12060293D01*
X7246253Y-12060293D02*
X7246253Y-12012674D01*
X7246253Y-12012674D02*
X7255777Y-11974579D01*
X7255777Y-11974579D02*
X7265301Y-11955531D01*
X7265301Y-11955531D02*
X7274824Y-11946008D01*
X7274824Y-11946008D02*
X7293872Y-11936484D01*
X7446253Y-12117436D02*
X7455777Y-12126960D01*
X7455777Y-12126960D02*
X7446253Y-12136484D01*
X7446253Y-12136484D02*
X7436729Y-12126960D01*
X7436729Y-12126960D02*
X7446253Y-12117436D01*
X7446253Y-12117436D02*
X7446253Y-12136484D01*
X7627205Y-12003150D02*
X7627205Y-12136484D01*
X7579586Y-11926960D02*
X7531967Y-12069817D01*
X7531967Y-12069817D02*
X7655777Y-12069817D01*
X7770062Y-11936484D02*
X7789110Y-11936484D01*
X7789110Y-11936484D02*
X7808158Y-11946008D01*
X7808158Y-11946008D02*
X7817682Y-11955531D01*
X7817682Y-11955531D02*
X7827205Y-11974579D01*
X7827205Y-11974579D02*
X7836729Y-12012674D01*
X7836729Y-12012674D02*
X7836729Y-12060293D01*
X7836729Y-12060293D02*
X7827205Y-12098388D01*
X7827205Y-12098388D02*
X7817682Y-12117436D01*
X7817682Y-12117436D02*
X7808158Y-12126960D01*
X7808158Y-12126960D02*
X7789110Y-12136484D01*
X7789110Y-12136484D02*
X7770062Y-12136484D01*
X7770062Y-12136484D02*
X7751015Y-12126960D01*
X7751015Y-12126960D02*
X7741491Y-12117436D01*
X7741491Y-12117436D02*
X7731967Y-12098388D01*
X7731967Y-12098388D02*
X7722443Y-12060293D01*
X7722443Y-12060293D02*
X7722443Y-12012674D01*
X7722443Y-12012674D02*
X7731967Y-11974579D01*
X7731967Y-11974579D02*
X7741491Y-11955531D01*
X7741491Y-11955531D02*
X7751015Y-11946008D01*
X7751015Y-11946008D02*
X7770062Y-11936484D01*
X7960539Y-11936484D02*
X7979586Y-11936484D01*
X7979586Y-11936484D02*
X7998634Y-11946008D01*
X7998634Y-11946008D02*
X8008158Y-11955531D01*
X8008158Y-11955531D02*
X8017682Y-11974579D01*
X8017682Y-11974579D02*
X8027205Y-12012674D01*
X8027205Y-12012674D02*
X8027205Y-12060293D01*
X8027205Y-12060293D02*
X8017682Y-12098388D01*
X8017682Y-12098388D02*
X8008158Y-12117436D01*
X8008158Y-12117436D02*
X7998634Y-12126960D01*
X7998634Y-12126960D02*
X7979586Y-12136484D01*
X7979586Y-12136484D02*
X7960539Y-12136484D01*
X7960539Y-12136484D02*
X7941491Y-12126960D01*
X7941491Y-12126960D02*
X7931967Y-12117436D01*
X7931967Y-12117436D02*
X7922443Y-12098388D01*
X7922443Y-12098388D02*
X7912920Y-12060293D01*
X7912920Y-12060293D02*
X7912920Y-12012674D01*
X7912920Y-12012674D02*
X7922443Y-11974579D01*
X7922443Y-11974579D02*
X7931967Y-11955531D01*
X7931967Y-11955531D02*
X7941491Y-11946008D01*
X7941491Y-11946008D02*
X7960539Y-11936484D01*
X8112920Y-12136484D02*
X8112920Y-12003150D01*
X8112920Y-12022198D02*
X8122443Y-12012674D01*
X8122443Y-12012674D02*
X8141491Y-12003150D01*
X8141491Y-12003150D02*
X8170063Y-12003150D01*
X8170063Y-12003150D02*
X8189110Y-12012674D01*
X8189110Y-12012674D02*
X8198634Y-12031722D01*
X8198634Y-12031722D02*
X8198634Y-12136484D01*
X8198634Y-12031722D02*
X8208158Y-12012674D01*
X8208158Y-12012674D02*
X8227205Y-12003150D01*
X8227205Y-12003150D02*
X8255777Y-12003150D01*
X8255777Y-12003150D02*
X8274824Y-12012674D01*
X8274824Y-12012674D02*
X8284348Y-12031722D01*
X8284348Y-12031722D02*
X8284348Y-12136484D01*
X8379586Y-12136484D02*
X8379586Y-12003150D01*
X8379586Y-12022198D02*
X8389110Y-12012674D01*
X8389110Y-12012674D02*
X8408158Y-12003150D01*
X8408158Y-12003150D02*
X8436729Y-12003150D01*
X8436729Y-12003150D02*
X8455777Y-12012674D01*
X8455777Y-12012674D02*
X8465301Y-12031722D01*
X8465301Y-12031722D02*
X8465301Y-12136484D01*
X8465301Y-12031722D02*
X8474825Y-12012674D01*
X8474825Y-12012674D02*
X8493872Y-12003150D01*
X8493872Y-12003150D02*
X8522444Y-12003150D01*
X8522444Y-12003150D02*
X8541491Y-12012674D01*
X8541491Y-12012674D02*
X8551015Y-12031722D01*
X8551015Y-12031722D02*
X8551015Y-12136484D01*
X8941491Y-11926960D02*
X8770063Y-12184103D01*
X9198634Y-11936484D02*
X9217682Y-11936484D01*
X9217682Y-11936484D02*
X9236729Y-11946008D01*
X9236729Y-11946008D02*
X9246253Y-11955531D01*
X9246253Y-11955531D02*
X9255777Y-11974579D01*
X9255777Y-11974579D02*
X9265301Y-12012674D01*
X9265301Y-12012674D02*
X9265301Y-12060293D01*
X9265301Y-12060293D02*
X9255777Y-12098388D01*
X9255777Y-12098388D02*
X9246253Y-12117436D01*
X9246253Y-12117436D02*
X9236729Y-12126960D01*
X9236729Y-12126960D02*
X9217682Y-12136484D01*
X9217682Y-12136484D02*
X9198634Y-12136484D01*
X9198634Y-12136484D02*
X9179587Y-12126960D01*
X9179587Y-12126960D02*
X9170063Y-12117436D01*
X9170063Y-12117436D02*
X9160539Y-12098388D01*
X9160539Y-12098388D02*
X9151015Y-12060293D01*
X9151015Y-12060293D02*
X9151015Y-12012674D01*
X9151015Y-12012674D02*
X9160539Y-11974579D01*
X9160539Y-11974579D02*
X9170063Y-11955531D01*
X9170063Y-11955531D02*
X9179587Y-11946008D01*
X9179587Y-11946008D02*
X9198634Y-11936484D01*
X9351015Y-12117436D02*
X9360539Y-12126960D01*
X9360539Y-12126960D02*
X9351015Y-12136484D01*
X9351015Y-12136484D02*
X9341491Y-12126960D01*
X9341491Y-12126960D02*
X9351015Y-12117436D01*
X9351015Y-12117436D02*
X9351015Y-12136484D01*
X9484348Y-11936484D02*
X9503396Y-11936484D01*
X9503396Y-11936484D02*
X9522444Y-11946008D01*
X9522444Y-11946008D02*
X9531968Y-11955531D01*
X9531968Y-11955531D02*
X9541491Y-11974579D01*
X9541491Y-11974579D02*
X9551015Y-12012674D01*
X9551015Y-12012674D02*
X9551015Y-12060293D01*
X9551015Y-12060293D02*
X9541491Y-12098388D01*
X9541491Y-12098388D02*
X9531968Y-12117436D01*
X9531968Y-12117436D02*
X9522444Y-12126960D01*
X9522444Y-12126960D02*
X9503396Y-12136484D01*
X9503396Y-12136484D02*
X9484348Y-12136484D01*
X9484348Y-12136484D02*
X9465301Y-12126960D01*
X9465301Y-12126960D02*
X9455777Y-12117436D01*
X9455777Y-12117436D02*
X9446253Y-12098388D01*
X9446253Y-12098388D02*
X9436729Y-12060293D01*
X9436729Y-12060293D02*
X9436729Y-12012674D01*
X9436729Y-12012674D02*
X9446253Y-11974579D01*
X9446253Y-11974579D02*
X9455777Y-11955531D01*
X9455777Y-11955531D02*
X9465301Y-11946008D01*
X9465301Y-11946008D02*
X9484348Y-11936484D01*
X9741491Y-12136484D02*
X9627206Y-12136484D01*
X9684348Y-12136484D02*
X9684348Y-11936484D01*
X9684348Y-11936484D02*
X9665301Y-11965055D01*
X9665301Y-11965055D02*
X9646253Y-11984103D01*
X9646253Y-11984103D02*
X9627206Y-11993627D01*
X9922444Y-11936484D02*
X9827206Y-11936484D01*
X9827206Y-11936484D02*
X9817682Y-12031722D01*
X9817682Y-12031722D02*
X9827206Y-12022198D01*
X9827206Y-12022198D02*
X9846253Y-12012674D01*
X9846253Y-12012674D02*
X9893872Y-12012674D01*
X9893872Y-12012674D02*
X9912920Y-12022198D01*
X9912920Y-12022198D02*
X9922444Y-12031722D01*
X9922444Y-12031722D02*
X9931968Y-12050769D01*
X9931968Y-12050769D02*
X9931968Y-12098388D01*
X9931968Y-12098388D02*
X9922444Y-12117436D01*
X9922444Y-12117436D02*
X9912920Y-12126960D01*
X9912920Y-12126960D02*
X9893872Y-12136484D01*
X9893872Y-12136484D02*
X9846253Y-12136484D01*
X9846253Y-12136484D02*
X9827206Y-12126960D01*
X9827206Y-12126960D02*
X9817682Y-12117436D01*
X9998634Y-11936484D02*
X10131968Y-11936484D01*
X10131968Y-11936484D02*
X10046253Y-12136484D01*
X10198634Y-11936484D02*
X10198634Y-11974579D01*
X10274825Y-11936484D02*
X10274825Y-11974579D01*
X10570063Y-12212674D02*
X10560539Y-12203150D01*
X10560539Y-12203150D02*
X10541491Y-12174579D01*
X10541491Y-12174579D02*
X10531968Y-12155531D01*
X10531968Y-12155531D02*
X10522444Y-12126960D01*
X10522444Y-12126960D02*
X10512920Y-12079341D01*
X10512920Y-12079341D02*
X10512920Y-12041246D01*
X10512920Y-12041246D02*
X10522444Y-11993627D01*
X10522444Y-11993627D02*
X10531968Y-11965055D01*
X10531968Y-11965055D02*
X10541491Y-11946008D01*
X10541491Y-11946008D02*
X10560539Y-11917436D01*
X10560539Y-11917436D02*
X10570063Y-11907912D01*
X10627206Y-11936484D02*
X10751015Y-11936484D01*
X10751015Y-11936484D02*
X10684349Y-12012674D01*
X10684349Y-12012674D02*
X10712920Y-12012674D01*
X10712920Y-12012674D02*
X10731968Y-12022198D01*
X10731968Y-12022198D02*
X10741491Y-12031722D01*
X10741491Y-12031722D02*
X10751015Y-12050769D01*
X10751015Y-12050769D02*
X10751015Y-12098388D01*
X10751015Y-12098388D02*
X10741491Y-12117436D01*
X10741491Y-12117436D02*
X10731968Y-12126960D01*
X10731968Y-12126960D02*
X10712920Y-12136484D01*
X10712920Y-12136484D02*
X10655777Y-12136484D01*
X10655777Y-12136484D02*
X10636730Y-12126960D01*
X10636730Y-12126960D02*
X10627206Y-12117436D01*
X10874825Y-11936484D02*
X10893872Y-11936484D01*
X10893872Y-11936484D02*
X10912920Y-11946008D01*
X10912920Y-11946008D02*
X10922444Y-11955531D01*
X10922444Y-11955531D02*
X10931968Y-11974579D01*
X10931968Y-11974579D02*
X10941491Y-12012674D01*
X10941491Y-12012674D02*
X10941491Y-12060293D01*
X10941491Y-12060293D02*
X10931968Y-12098388D01*
X10931968Y-12098388D02*
X10922444Y-12117436D01*
X10922444Y-12117436D02*
X10912920Y-12126960D01*
X10912920Y-12126960D02*
X10893872Y-12136484D01*
X10893872Y-12136484D02*
X10874825Y-12136484D01*
X10874825Y-12136484D02*
X10855777Y-12126960D01*
X10855777Y-12126960D02*
X10846253Y-12117436D01*
X10846253Y-12117436D02*
X10836730Y-12098388D01*
X10836730Y-12098388D02*
X10827206Y-12060293D01*
X10827206Y-12060293D02*
X10827206Y-12012674D01*
X10827206Y-12012674D02*
X10836730Y-11974579D01*
X10836730Y-11974579D02*
X10846253Y-11955531D01*
X10846253Y-11955531D02*
X10855777Y-11946008D01*
X10855777Y-11946008D02*
X10874825Y-11936484D01*
X11179587Y-12136484D02*
X11179587Y-11936484D01*
X11265301Y-12136484D02*
X11265301Y-12031722D01*
X11265301Y-12031722D02*
X11255777Y-12012674D01*
X11255777Y-12012674D02*
X11236730Y-12003150D01*
X11236730Y-12003150D02*
X11208158Y-12003150D01*
X11208158Y-12003150D02*
X11189110Y-12012674D01*
X11189110Y-12012674D02*
X11179587Y-12022198D01*
X11389110Y-12136484D02*
X11370063Y-12126960D01*
X11370063Y-12126960D02*
X11360539Y-12117436D01*
X11360539Y-12117436D02*
X11351015Y-12098388D01*
X11351015Y-12098388D02*
X11351015Y-12041246D01*
X11351015Y-12041246D02*
X11360539Y-12022198D01*
X11360539Y-12022198D02*
X11370063Y-12012674D01*
X11370063Y-12012674D02*
X11389110Y-12003150D01*
X11389110Y-12003150D02*
X11417682Y-12003150D01*
X11417682Y-12003150D02*
X11436730Y-12012674D01*
X11436730Y-12012674D02*
X11446253Y-12022198D01*
X11446253Y-12022198D02*
X11455777Y-12041246D01*
X11455777Y-12041246D02*
X11455777Y-12098388D01*
X11455777Y-12098388D02*
X11446253Y-12117436D01*
X11446253Y-12117436D02*
X11436730Y-12126960D01*
X11436730Y-12126960D02*
X11417682Y-12136484D01*
X11417682Y-12136484D02*
X11389110Y-12136484D01*
X11570063Y-12136484D02*
X11551015Y-12126960D01*
X11551015Y-12126960D02*
X11541491Y-12107912D01*
X11541491Y-12107912D02*
X11541491Y-11936484D01*
X11722444Y-12126960D02*
X11703396Y-12136484D01*
X11703396Y-12136484D02*
X11665301Y-12136484D01*
X11665301Y-12136484D02*
X11646253Y-12126960D01*
X11646253Y-12126960D02*
X11636730Y-12107912D01*
X11636730Y-12107912D02*
X11636730Y-12031722D01*
X11636730Y-12031722D02*
X11646253Y-12012674D01*
X11646253Y-12012674D02*
X11665301Y-12003150D01*
X11665301Y-12003150D02*
X11703396Y-12003150D01*
X11703396Y-12003150D02*
X11722444Y-12012674D01*
X11722444Y-12012674D02*
X11731968Y-12031722D01*
X11731968Y-12031722D02*
X11731968Y-12050769D01*
X11731968Y-12050769D02*
X11636730Y-12069817D01*
X11808158Y-12126960D02*
X11827206Y-12136484D01*
X11827206Y-12136484D02*
X11865301Y-12136484D01*
X11865301Y-12136484D02*
X11884349Y-12126960D01*
X11884349Y-12126960D02*
X11893872Y-12107912D01*
X11893872Y-12107912D02*
X11893872Y-12098388D01*
X11893872Y-12098388D02*
X11884349Y-12079341D01*
X11884349Y-12079341D02*
X11865301Y-12069817D01*
X11865301Y-12069817D02*
X11836730Y-12069817D01*
X11836730Y-12069817D02*
X11817682Y-12060293D01*
X11817682Y-12060293D02*
X11808158Y-12041246D01*
X11808158Y-12041246D02*
X11808158Y-12031722D01*
X11808158Y-12031722D02*
X11817682Y-12012674D01*
X11817682Y-12012674D02*
X11836730Y-12003150D01*
X11836730Y-12003150D02*
X11865301Y-12003150D01*
X11865301Y-12003150D02*
X11884349Y-12012674D01*
X11960539Y-12212674D02*
X11970063Y-12203150D01*
X11970063Y-12203150D02*
X11989111Y-12174579D01*
X11989111Y-12174579D02*
X11998634Y-12155531D01*
X11998634Y-12155531D02*
X12008158Y-12126960D01*
X12008158Y-12126960D02*
X12017682Y-12079341D01*
X12017682Y-12079341D02*
X12017682Y-12041246D01*
X12017682Y-12041246D02*
X12008158Y-11993627D01*
X12008158Y-11993627D02*
X11998634Y-11965055D01*
X11998634Y-11965055D02*
X11989111Y-11946008D01*
X11989111Y-11946008D02*
X11970063Y-11917436D01*
X11970063Y-11917436D02*
X11960539Y-11907912D01*
D10*
X6995000Y-12309000D02*
G75*
G03*
X6995000Y-12309000I-50000J0D01*
G01*
D11*
X7360539Y-12400484D02*
X7246253Y-12400484D01*
X7303396Y-12400484D02*
X7303396Y-12200484D01*
X7303396Y-12200484D02*
X7284348Y-12229055D01*
X7284348Y-12229055D02*
X7265301Y-12248103D01*
X7265301Y-12248103D02*
X7246253Y-12257627D01*
X7446253Y-12381436D02*
X7455777Y-12390960D01*
X7455777Y-12390960D02*
X7446253Y-12400484D01*
X7446253Y-12400484D02*
X7436729Y-12390960D01*
X7436729Y-12390960D02*
X7446253Y-12381436D01*
X7446253Y-12381436D02*
X7446253Y-12400484D01*
X7579586Y-12200484D02*
X7598634Y-12200484D01*
X7598634Y-12200484D02*
X7617682Y-12210008D01*
X7617682Y-12210008D02*
X7627205Y-12219531D01*
X7627205Y-12219531D02*
X7636729Y-12238579D01*
X7636729Y-12238579D02*
X7646253Y-12276674D01*
X7646253Y-12276674D02*
X7646253Y-12324293D01*
X7646253Y-12324293D02*
X7636729Y-12362388D01*
X7636729Y-12362388D02*
X7627205Y-12381436D01*
X7627205Y-12381436D02*
X7617682Y-12390960D01*
X7617682Y-12390960D02*
X7598634Y-12400484D01*
X7598634Y-12400484D02*
X7579586Y-12400484D01*
X7579586Y-12400484D02*
X7560539Y-12390960D01*
X7560539Y-12390960D02*
X7551015Y-12381436D01*
X7551015Y-12381436D02*
X7541491Y-12362388D01*
X7541491Y-12362388D02*
X7531967Y-12324293D01*
X7531967Y-12324293D02*
X7531967Y-12276674D01*
X7531967Y-12276674D02*
X7541491Y-12238579D01*
X7541491Y-12238579D02*
X7551015Y-12219531D01*
X7551015Y-12219531D02*
X7560539Y-12210008D01*
X7560539Y-12210008D02*
X7579586Y-12200484D01*
X7770062Y-12200484D02*
X7789110Y-12200484D01*
X7789110Y-12200484D02*
X7808158Y-12210008D01*
X7808158Y-12210008D02*
X7817682Y-12219531D01*
X7817682Y-12219531D02*
X7827205Y-12238579D01*
X7827205Y-12238579D02*
X7836729Y-12276674D01*
X7836729Y-12276674D02*
X7836729Y-12324293D01*
X7836729Y-12324293D02*
X7827205Y-12362388D01*
X7827205Y-12362388D02*
X7817682Y-12381436D01*
X7817682Y-12381436D02*
X7808158Y-12390960D01*
X7808158Y-12390960D02*
X7789110Y-12400484D01*
X7789110Y-12400484D02*
X7770062Y-12400484D01*
X7770062Y-12400484D02*
X7751015Y-12390960D01*
X7751015Y-12390960D02*
X7741491Y-12381436D01*
X7741491Y-12381436D02*
X7731967Y-12362388D01*
X7731967Y-12362388D02*
X7722443Y-12324293D01*
X7722443Y-12324293D02*
X7722443Y-12276674D01*
X7722443Y-12276674D02*
X7731967Y-12238579D01*
X7731967Y-12238579D02*
X7741491Y-12219531D01*
X7741491Y-12219531D02*
X7751015Y-12210008D01*
X7751015Y-12210008D02*
X7770062Y-12200484D01*
X7960539Y-12200484D02*
X7979586Y-12200484D01*
X7979586Y-12200484D02*
X7998634Y-12210008D01*
X7998634Y-12210008D02*
X8008158Y-12219531D01*
X8008158Y-12219531D02*
X8017682Y-12238579D01*
X8017682Y-12238579D02*
X8027205Y-12276674D01*
X8027205Y-12276674D02*
X8027205Y-12324293D01*
X8027205Y-12324293D02*
X8017682Y-12362388D01*
X8017682Y-12362388D02*
X8008158Y-12381436D01*
X8008158Y-12381436D02*
X7998634Y-12390960D01*
X7998634Y-12390960D02*
X7979586Y-12400484D01*
X7979586Y-12400484D02*
X7960539Y-12400484D01*
X7960539Y-12400484D02*
X7941491Y-12390960D01*
X7941491Y-12390960D02*
X7931967Y-12381436D01*
X7931967Y-12381436D02*
X7922443Y-12362388D01*
X7922443Y-12362388D02*
X7912920Y-12324293D01*
X7912920Y-12324293D02*
X7912920Y-12276674D01*
X7912920Y-12276674D02*
X7922443Y-12238579D01*
X7922443Y-12238579D02*
X7931967Y-12219531D01*
X7931967Y-12219531D02*
X7941491Y-12210008D01*
X7941491Y-12210008D02*
X7960539Y-12200484D01*
X8112920Y-12400484D02*
X8112920Y-12267150D01*
X8112920Y-12286198D02*
X8122443Y-12276674D01*
X8122443Y-12276674D02*
X8141491Y-12267150D01*
X8141491Y-12267150D02*
X8170063Y-12267150D01*
X8170063Y-12267150D02*
X8189110Y-12276674D01*
X8189110Y-12276674D02*
X8198634Y-12295722D01*
X8198634Y-12295722D02*
X8198634Y-12400484D01*
X8198634Y-12295722D02*
X8208158Y-12276674D01*
X8208158Y-12276674D02*
X8227205Y-12267150D01*
X8227205Y-12267150D02*
X8255777Y-12267150D01*
X8255777Y-12267150D02*
X8274824Y-12276674D01*
X8274824Y-12276674D02*
X8284348Y-12295722D01*
X8284348Y-12295722D02*
X8284348Y-12400484D01*
X8379586Y-12400484D02*
X8379586Y-12267150D01*
X8379586Y-12286198D02*
X8389110Y-12276674D01*
X8389110Y-12276674D02*
X8408158Y-12267150D01*
X8408158Y-12267150D02*
X8436729Y-12267150D01*
X8436729Y-12267150D02*
X8455777Y-12276674D01*
X8455777Y-12276674D02*
X8465301Y-12295722D01*
X8465301Y-12295722D02*
X8465301Y-12400484D01*
X8465301Y-12295722D02*
X8474825Y-12276674D01*
X8474825Y-12276674D02*
X8493872Y-12267150D01*
X8493872Y-12267150D02*
X8522444Y-12267150D01*
X8522444Y-12267150D02*
X8541491Y-12276674D01*
X8541491Y-12276674D02*
X8551015Y-12295722D01*
X8551015Y-12295722D02*
X8551015Y-12400484D01*
X8941491Y-12190960D02*
X8770063Y-12448103D01*
X9198634Y-12200484D02*
X9217682Y-12200484D01*
X9217682Y-12200484D02*
X9236729Y-12210008D01*
X9236729Y-12210008D02*
X9246253Y-12219531D01*
X9246253Y-12219531D02*
X9255777Y-12238579D01*
X9255777Y-12238579D02*
X9265301Y-12276674D01*
X9265301Y-12276674D02*
X9265301Y-12324293D01*
X9265301Y-12324293D02*
X9255777Y-12362388D01*
X9255777Y-12362388D02*
X9246253Y-12381436D01*
X9246253Y-12381436D02*
X9236729Y-12390960D01*
X9236729Y-12390960D02*
X9217682Y-12400484D01*
X9217682Y-12400484D02*
X9198634Y-12400484D01*
X9198634Y-12400484D02*
X9179587Y-12390960D01*
X9179587Y-12390960D02*
X9170063Y-12381436D01*
X9170063Y-12381436D02*
X9160539Y-12362388D01*
X9160539Y-12362388D02*
X9151015Y-12324293D01*
X9151015Y-12324293D02*
X9151015Y-12276674D01*
X9151015Y-12276674D02*
X9160539Y-12238579D01*
X9160539Y-12238579D02*
X9170063Y-12219531D01*
X9170063Y-12219531D02*
X9179587Y-12210008D01*
X9179587Y-12210008D02*
X9198634Y-12200484D01*
X9351015Y-12381436D02*
X9360539Y-12390960D01*
X9360539Y-12390960D02*
X9351015Y-12400484D01*
X9351015Y-12400484D02*
X9341491Y-12390960D01*
X9341491Y-12390960D02*
X9351015Y-12381436D01*
X9351015Y-12381436D02*
X9351015Y-12400484D01*
X9484348Y-12200484D02*
X9503396Y-12200484D01*
X9503396Y-12200484D02*
X9522444Y-12210008D01*
X9522444Y-12210008D02*
X9531968Y-12219531D01*
X9531968Y-12219531D02*
X9541491Y-12238579D01*
X9541491Y-12238579D02*
X9551015Y-12276674D01*
X9551015Y-12276674D02*
X9551015Y-12324293D01*
X9551015Y-12324293D02*
X9541491Y-12362388D01*
X9541491Y-12362388D02*
X9531968Y-12381436D01*
X9531968Y-12381436D02*
X9522444Y-12390960D01*
X9522444Y-12390960D02*
X9503396Y-12400484D01*
X9503396Y-12400484D02*
X9484348Y-12400484D01*
X9484348Y-12400484D02*
X9465301Y-12390960D01*
X9465301Y-12390960D02*
X9455777Y-12381436D01*
X9455777Y-12381436D02*
X9446253Y-12362388D01*
X9446253Y-12362388D02*
X9436729Y-12324293D01*
X9436729Y-12324293D02*
X9436729Y-12276674D01*
X9436729Y-12276674D02*
X9446253Y-12238579D01*
X9446253Y-12238579D02*
X9455777Y-12219531D01*
X9455777Y-12219531D02*
X9465301Y-12210008D01*
X9465301Y-12210008D02*
X9484348Y-12200484D01*
X9617682Y-12200484D02*
X9741491Y-12200484D01*
X9741491Y-12200484D02*
X9674825Y-12276674D01*
X9674825Y-12276674D02*
X9703396Y-12276674D01*
X9703396Y-12276674D02*
X9722444Y-12286198D01*
X9722444Y-12286198D02*
X9731968Y-12295722D01*
X9731968Y-12295722D02*
X9741491Y-12314769D01*
X9741491Y-12314769D02*
X9741491Y-12362388D01*
X9741491Y-12362388D02*
X9731968Y-12381436D01*
X9731968Y-12381436D02*
X9722444Y-12390960D01*
X9722444Y-12390960D02*
X9703396Y-12400484D01*
X9703396Y-12400484D02*
X9646253Y-12400484D01*
X9646253Y-12400484D02*
X9627206Y-12390960D01*
X9627206Y-12390960D02*
X9617682Y-12381436D01*
X9836729Y-12400484D02*
X9874825Y-12400484D01*
X9874825Y-12400484D02*
X9893872Y-12390960D01*
X9893872Y-12390960D02*
X9903396Y-12381436D01*
X9903396Y-12381436D02*
X9922444Y-12352865D01*
X9922444Y-12352865D02*
X9931968Y-12314769D01*
X9931968Y-12314769D02*
X9931968Y-12238579D01*
X9931968Y-12238579D02*
X9922444Y-12219531D01*
X9922444Y-12219531D02*
X9912920Y-12210008D01*
X9912920Y-12210008D02*
X9893872Y-12200484D01*
X9893872Y-12200484D02*
X9855777Y-12200484D01*
X9855777Y-12200484D02*
X9836729Y-12210008D01*
X9836729Y-12210008D02*
X9827206Y-12219531D01*
X9827206Y-12219531D02*
X9817682Y-12238579D01*
X9817682Y-12238579D02*
X9817682Y-12286198D01*
X9817682Y-12286198D02*
X9827206Y-12305246D01*
X9827206Y-12305246D02*
X9836729Y-12314769D01*
X9836729Y-12314769D02*
X9855777Y-12324293D01*
X9855777Y-12324293D02*
X9893872Y-12324293D01*
X9893872Y-12324293D02*
X9912920Y-12314769D01*
X9912920Y-12314769D02*
X9922444Y-12305246D01*
X9922444Y-12305246D02*
X9931968Y-12286198D01*
X10103396Y-12267150D02*
X10103396Y-12400484D01*
X10055777Y-12190960D02*
X10008158Y-12333817D01*
X10008158Y-12333817D02*
X10131968Y-12333817D01*
X10198634Y-12200484D02*
X10198634Y-12238579D01*
X10274825Y-12200484D02*
X10274825Y-12238579D01*
X10570063Y-12476674D02*
X10560539Y-12467150D01*
X10560539Y-12467150D02*
X10541491Y-12438579D01*
X10541491Y-12438579D02*
X10531968Y-12419531D01*
X10531968Y-12419531D02*
X10522444Y-12390960D01*
X10522444Y-12390960D02*
X10512920Y-12343341D01*
X10512920Y-12343341D02*
X10512920Y-12305246D01*
X10512920Y-12305246D02*
X10522444Y-12257627D01*
X10522444Y-12257627D02*
X10531968Y-12229055D01*
X10531968Y-12229055D02*
X10541491Y-12210008D01*
X10541491Y-12210008D02*
X10560539Y-12181436D01*
X10560539Y-12181436D02*
X10570063Y-12171912D01*
X10636730Y-12219531D02*
X10646253Y-12210008D01*
X10646253Y-12210008D02*
X10665301Y-12200484D01*
X10665301Y-12200484D02*
X10712920Y-12200484D01*
X10712920Y-12200484D02*
X10731968Y-12210008D01*
X10731968Y-12210008D02*
X10741491Y-12219531D01*
X10741491Y-12219531D02*
X10751015Y-12238579D01*
X10751015Y-12238579D02*
X10751015Y-12257627D01*
X10751015Y-12257627D02*
X10741491Y-12286198D01*
X10741491Y-12286198D02*
X10627206Y-12400484D01*
X10627206Y-12400484D02*
X10751015Y-12400484D01*
X10931968Y-12200484D02*
X10836730Y-12200484D01*
X10836730Y-12200484D02*
X10827206Y-12295722D01*
X10827206Y-12295722D02*
X10836730Y-12286198D01*
X10836730Y-12286198D02*
X10855777Y-12276674D01*
X10855777Y-12276674D02*
X10903396Y-12276674D01*
X10903396Y-12276674D02*
X10922444Y-12286198D01*
X10922444Y-12286198D02*
X10931968Y-12295722D01*
X10931968Y-12295722D02*
X10941491Y-12314769D01*
X10941491Y-12314769D02*
X10941491Y-12362388D01*
X10941491Y-12362388D02*
X10931968Y-12381436D01*
X10931968Y-12381436D02*
X10922444Y-12390960D01*
X10922444Y-12390960D02*
X10903396Y-12400484D01*
X10903396Y-12400484D02*
X10855777Y-12400484D01*
X10855777Y-12400484D02*
X10836730Y-12390960D01*
X10836730Y-12390960D02*
X10827206Y-12381436D01*
X11179587Y-12400484D02*
X11179587Y-12200484D01*
X11265301Y-12400484D02*
X11265301Y-12295722D01*
X11265301Y-12295722D02*
X11255777Y-12276674D01*
X11255777Y-12276674D02*
X11236730Y-12267150D01*
X11236730Y-12267150D02*
X11208158Y-12267150D01*
X11208158Y-12267150D02*
X11189110Y-12276674D01*
X11189110Y-12276674D02*
X11179587Y-12286198D01*
X11389110Y-12400484D02*
X11370063Y-12390960D01*
X11370063Y-12390960D02*
X11360539Y-12381436D01*
X11360539Y-12381436D02*
X11351015Y-12362388D01*
X11351015Y-12362388D02*
X11351015Y-12305246D01*
X11351015Y-12305246D02*
X11360539Y-12286198D01*
X11360539Y-12286198D02*
X11370063Y-12276674D01*
X11370063Y-12276674D02*
X11389110Y-12267150D01*
X11389110Y-12267150D02*
X11417682Y-12267150D01*
X11417682Y-12267150D02*
X11436730Y-12276674D01*
X11436730Y-12276674D02*
X11446253Y-12286198D01*
X11446253Y-12286198D02*
X11455777Y-12305246D01*
X11455777Y-12305246D02*
X11455777Y-12362388D01*
X11455777Y-12362388D02*
X11446253Y-12381436D01*
X11446253Y-12381436D02*
X11436730Y-12390960D01*
X11436730Y-12390960D02*
X11417682Y-12400484D01*
X11417682Y-12400484D02*
X11389110Y-12400484D01*
X11570063Y-12400484D02*
X11551015Y-12390960D01*
X11551015Y-12390960D02*
X11541491Y-12371912D01*
X11541491Y-12371912D02*
X11541491Y-12200484D01*
X11722444Y-12390960D02*
X11703396Y-12400484D01*
X11703396Y-12400484D02*
X11665301Y-12400484D01*
X11665301Y-12400484D02*
X11646253Y-12390960D01*
X11646253Y-12390960D02*
X11636730Y-12371912D01*
X11636730Y-12371912D02*
X11636730Y-12295722D01*
X11636730Y-12295722D02*
X11646253Y-12276674D01*
X11646253Y-12276674D02*
X11665301Y-12267150D01*
X11665301Y-12267150D02*
X11703396Y-12267150D01*
X11703396Y-12267150D02*
X11722444Y-12276674D01*
X11722444Y-12276674D02*
X11731968Y-12295722D01*
X11731968Y-12295722D02*
X11731968Y-12314769D01*
X11731968Y-12314769D02*
X11636730Y-12333817D01*
X11808158Y-12390960D02*
X11827206Y-12400484D01*
X11827206Y-12400484D02*
X11865301Y-12400484D01*
X11865301Y-12400484D02*
X11884349Y-12390960D01*
X11884349Y-12390960D02*
X11893872Y-12371912D01*
X11893872Y-12371912D02*
X11893872Y-12362388D01*
X11893872Y-12362388D02*
X11884349Y-12343341D01*
X11884349Y-12343341D02*
X11865301Y-12333817D01*
X11865301Y-12333817D02*
X11836730Y-12333817D01*
X11836730Y-12333817D02*
X11817682Y-12324293D01*
X11817682Y-12324293D02*
X11808158Y-12305246D01*
X11808158Y-12305246D02*
X11808158Y-12295722D01*
X11808158Y-12295722D02*
X11817682Y-12276674D01*
X11817682Y-12276674D02*
X11836730Y-12267150D01*
X11836730Y-12267150D02*
X11865301Y-12267150D01*
X11865301Y-12267150D02*
X11884349Y-12276674D01*
X11960539Y-12476674D02*
X11970063Y-12467150D01*
X11970063Y-12467150D02*
X11989111Y-12438579D01*
X11989111Y-12438579D02*
X11998634Y-12419531D01*
X11998634Y-12419531D02*
X12008158Y-12390960D01*
X12008158Y-12390960D02*
X12017682Y-12343341D01*
X12017682Y-12343341D02*
X12017682Y-12305246D01*
X12017682Y-12305246D02*
X12008158Y-12257627D01*
X12008158Y-12257627D02*
X11998634Y-12229055D01*
X11998634Y-12229055D02*
X11989111Y-12210008D01*
X11989111Y-12210008D02*
X11970063Y-12181436D01*
X11970063Y-12181436D02*
X11960539Y-12171912D01*
D13*
X6925000Y-12503000D02*
X6925000Y-12643000D01*
X6855000Y-12573000D02*
X6995000Y-12573000D01*
D11*
X7360539Y-12664484D02*
X7246253Y-12664484D01*
X7303396Y-12664484D02*
X7303396Y-12464484D01*
X7303396Y-12464484D02*
X7284348Y-12493055D01*
X7284348Y-12493055D02*
X7265301Y-12512103D01*
X7265301Y-12512103D02*
X7246253Y-12521627D01*
X7446253Y-12645436D02*
X7455777Y-12654960D01*
X7455777Y-12654960D02*
X7446253Y-12664484D01*
X7446253Y-12664484D02*
X7436729Y-12654960D01*
X7436729Y-12654960D02*
X7446253Y-12645436D01*
X7446253Y-12645436D02*
X7446253Y-12664484D01*
X7627205Y-12531150D02*
X7627205Y-12664484D01*
X7579586Y-12454960D02*
X7531967Y-12597817D01*
X7531967Y-12597817D02*
X7655777Y-12597817D01*
X7770062Y-12464484D02*
X7789110Y-12464484D01*
X7789110Y-12464484D02*
X7808158Y-12474008D01*
X7808158Y-12474008D02*
X7817682Y-12483531D01*
X7817682Y-12483531D02*
X7827205Y-12502579D01*
X7827205Y-12502579D02*
X7836729Y-12540674D01*
X7836729Y-12540674D02*
X7836729Y-12588293D01*
X7836729Y-12588293D02*
X7827205Y-12626388D01*
X7827205Y-12626388D02*
X7817682Y-12645436D01*
X7817682Y-12645436D02*
X7808158Y-12654960D01*
X7808158Y-12654960D02*
X7789110Y-12664484D01*
X7789110Y-12664484D02*
X7770062Y-12664484D01*
X7770062Y-12664484D02*
X7751015Y-12654960D01*
X7751015Y-12654960D02*
X7741491Y-12645436D01*
X7741491Y-12645436D02*
X7731967Y-12626388D01*
X7731967Y-12626388D02*
X7722443Y-12588293D01*
X7722443Y-12588293D02*
X7722443Y-12540674D01*
X7722443Y-12540674D02*
X7731967Y-12502579D01*
X7731967Y-12502579D02*
X7741491Y-12483531D01*
X7741491Y-12483531D02*
X7751015Y-12474008D01*
X7751015Y-12474008D02*
X7770062Y-12464484D01*
X7960539Y-12464484D02*
X7979586Y-12464484D01*
X7979586Y-12464484D02*
X7998634Y-12474008D01*
X7998634Y-12474008D02*
X8008158Y-12483531D01*
X8008158Y-12483531D02*
X8017682Y-12502579D01*
X8017682Y-12502579D02*
X8027205Y-12540674D01*
X8027205Y-12540674D02*
X8027205Y-12588293D01*
X8027205Y-12588293D02*
X8017682Y-12626388D01*
X8017682Y-12626388D02*
X8008158Y-12645436D01*
X8008158Y-12645436D02*
X7998634Y-12654960D01*
X7998634Y-12654960D02*
X7979586Y-12664484D01*
X7979586Y-12664484D02*
X7960539Y-12664484D01*
X7960539Y-12664484D02*
X7941491Y-12654960D01*
X7941491Y-12654960D02*
X7931967Y-12645436D01*
X7931967Y-12645436D02*
X7922443Y-12626388D01*
X7922443Y-12626388D02*
X7912920Y-12588293D01*
X7912920Y-12588293D02*
X7912920Y-12540674D01*
X7912920Y-12540674D02*
X7922443Y-12502579D01*
X7922443Y-12502579D02*
X7931967Y-12483531D01*
X7931967Y-12483531D02*
X7941491Y-12474008D01*
X7941491Y-12474008D02*
X7960539Y-12464484D01*
X8112920Y-12664484D02*
X8112920Y-12531150D01*
X8112920Y-12550198D02*
X8122443Y-12540674D01*
X8122443Y-12540674D02*
X8141491Y-12531150D01*
X8141491Y-12531150D02*
X8170063Y-12531150D01*
X8170063Y-12531150D02*
X8189110Y-12540674D01*
X8189110Y-12540674D02*
X8198634Y-12559722D01*
X8198634Y-12559722D02*
X8198634Y-12664484D01*
X8198634Y-12559722D02*
X8208158Y-12540674D01*
X8208158Y-12540674D02*
X8227205Y-12531150D01*
X8227205Y-12531150D02*
X8255777Y-12531150D01*
X8255777Y-12531150D02*
X8274824Y-12540674D01*
X8274824Y-12540674D02*
X8284348Y-12559722D01*
X8284348Y-12559722D02*
X8284348Y-12664484D01*
X8379586Y-12664484D02*
X8379586Y-12531150D01*
X8379586Y-12550198D02*
X8389110Y-12540674D01*
X8389110Y-12540674D02*
X8408158Y-12531150D01*
X8408158Y-12531150D02*
X8436729Y-12531150D01*
X8436729Y-12531150D02*
X8455777Y-12540674D01*
X8455777Y-12540674D02*
X8465301Y-12559722D01*
X8465301Y-12559722D02*
X8465301Y-12664484D01*
X8465301Y-12559722D02*
X8474825Y-12540674D01*
X8474825Y-12540674D02*
X8493872Y-12531150D01*
X8493872Y-12531150D02*
X8522444Y-12531150D01*
X8522444Y-12531150D02*
X8541491Y-12540674D01*
X8541491Y-12540674D02*
X8551015Y-12559722D01*
X8551015Y-12559722D02*
X8551015Y-12664484D01*
X8941491Y-12454960D02*
X8770063Y-12712103D01*
X9198634Y-12464484D02*
X9217682Y-12464484D01*
X9217682Y-12464484D02*
X9236729Y-12474008D01*
X9236729Y-12474008D02*
X9246253Y-12483531D01*
X9246253Y-12483531D02*
X9255777Y-12502579D01*
X9255777Y-12502579D02*
X9265301Y-12540674D01*
X9265301Y-12540674D02*
X9265301Y-12588293D01*
X9265301Y-12588293D02*
X9255777Y-12626388D01*
X9255777Y-12626388D02*
X9246253Y-12645436D01*
X9246253Y-12645436D02*
X9236729Y-12654960D01*
X9236729Y-12654960D02*
X9217682Y-12664484D01*
X9217682Y-12664484D02*
X9198634Y-12664484D01*
X9198634Y-12664484D02*
X9179587Y-12654960D01*
X9179587Y-12654960D02*
X9170063Y-12645436D01*
X9170063Y-12645436D02*
X9160539Y-12626388D01*
X9160539Y-12626388D02*
X9151015Y-12588293D01*
X9151015Y-12588293D02*
X9151015Y-12540674D01*
X9151015Y-12540674D02*
X9160539Y-12502579D01*
X9160539Y-12502579D02*
X9170063Y-12483531D01*
X9170063Y-12483531D02*
X9179587Y-12474008D01*
X9179587Y-12474008D02*
X9198634Y-12464484D01*
X9351015Y-12645436D02*
X9360539Y-12654960D01*
X9360539Y-12654960D02*
X9351015Y-12664484D01*
X9351015Y-12664484D02*
X9341491Y-12654960D01*
X9341491Y-12654960D02*
X9351015Y-12645436D01*
X9351015Y-12645436D02*
X9351015Y-12664484D01*
X9484348Y-12464484D02*
X9503396Y-12464484D01*
X9503396Y-12464484D02*
X9522444Y-12474008D01*
X9522444Y-12474008D02*
X9531968Y-12483531D01*
X9531968Y-12483531D02*
X9541491Y-12502579D01*
X9541491Y-12502579D02*
X9551015Y-12540674D01*
X9551015Y-12540674D02*
X9551015Y-12588293D01*
X9551015Y-12588293D02*
X9541491Y-12626388D01*
X9541491Y-12626388D02*
X9531968Y-12645436D01*
X9531968Y-12645436D02*
X9522444Y-12654960D01*
X9522444Y-12654960D02*
X9503396Y-12664484D01*
X9503396Y-12664484D02*
X9484348Y-12664484D01*
X9484348Y-12664484D02*
X9465301Y-12654960D01*
X9465301Y-12654960D02*
X9455777Y-12645436D01*
X9455777Y-12645436D02*
X9446253Y-12626388D01*
X9446253Y-12626388D02*
X9436729Y-12588293D01*
X9436729Y-12588293D02*
X9436729Y-12540674D01*
X9436729Y-12540674D02*
X9446253Y-12502579D01*
X9446253Y-12502579D02*
X9455777Y-12483531D01*
X9455777Y-12483531D02*
X9465301Y-12474008D01*
X9465301Y-12474008D02*
X9484348Y-12464484D01*
X9731968Y-12464484D02*
X9636729Y-12464484D01*
X9636729Y-12464484D02*
X9627206Y-12559722D01*
X9627206Y-12559722D02*
X9636729Y-12550198D01*
X9636729Y-12550198D02*
X9655777Y-12540674D01*
X9655777Y-12540674D02*
X9703396Y-12540674D01*
X9703396Y-12540674D02*
X9722444Y-12550198D01*
X9722444Y-12550198D02*
X9731968Y-12559722D01*
X9731968Y-12559722D02*
X9741491Y-12578769D01*
X9741491Y-12578769D02*
X9741491Y-12626388D01*
X9741491Y-12626388D02*
X9731968Y-12645436D01*
X9731968Y-12645436D02*
X9722444Y-12654960D01*
X9722444Y-12654960D02*
X9703396Y-12664484D01*
X9703396Y-12664484D02*
X9655777Y-12664484D01*
X9655777Y-12664484D02*
X9636729Y-12654960D01*
X9636729Y-12654960D02*
X9627206Y-12645436D01*
X9922444Y-12464484D02*
X9827206Y-12464484D01*
X9827206Y-12464484D02*
X9817682Y-12559722D01*
X9817682Y-12559722D02*
X9827206Y-12550198D01*
X9827206Y-12550198D02*
X9846253Y-12540674D01*
X9846253Y-12540674D02*
X9893872Y-12540674D01*
X9893872Y-12540674D02*
X9912920Y-12550198D01*
X9912920Y-12550198D02*
X9922444Y-12559722D01*
X9922444Y-12559722D02*
X9931968Y-12578769D01*
X9931968Y-12578769D02*
X9931968Y-12626388D01*
X9931968Y-12626388D02*
X9922444Y-12645436D01*
X9922444Y-12645436D02*
X9912920Y-12654960D01*
X9912920Y-12654960D02*
X9893872Y-12664484D01*
X9893872Y-12664484D02*
X9846253Y-12664484D01*
X9846253Y-12664484D02*
X9827206Y-12654960D01*
X9827206Y-12654960D02*
X9817682Y-12645436D01*
X10122444Y-12664484D02*
X10008158Y-12664484D01*
X10065301Y-12664484D02*
X10065301Y-12464484D01*
X10065301Y-12464484D02*
X10046253Y-12493055D01*
X10046253Y-12493055D02*
X10027206Y-12512103D01*
X10027206Y-12512103D02*
X10008158Y-12521627D01*
X10198634Y-12464484D02*
X10198634Y-12502579D01*
X10274825Y-12464484D02*
X10274825Y-12502579D01*
X10570063Y-12740674D02*
X10560539Y-12731150D01*
X10560539Y-12731150D02*
X10541491Y-12702579D01*
X10541491Y-12702579D02*
X10531968Y-12683531D01*
X10531968Y-12683531D02*
X10522444Y-12654960D01*
X10522444Y-12654960D02*
X10512920Y-12607341D01*
X10512920Y-12607341D02*
X10512920Y-12569246D01*
X10512920Y-12569246D02*
X10522444Y-12521627D01*
X10522444Y-12521627D02*
X10531968Y-12493055D01*
X10531968Y-12493055D02*
X10541491Y-12474008D01*
X10541491Y-12474008D02*
X10560539Y-12445436D01*
X10560539Y-12445436D02*
X10570063Y-12435912D01*
X10627206Y-12464484D02*
X10760539Y-12464484D01*
X10760539Y-12464484D02*
X10674825Y-12664484D01*
X10989111Y-12664484D02*
X10989111Y-12464484D01*
X11074825Y-12664484D02*
X11074825Y-12559722D01*
X11074825Y-12559722D02*
X11065301Y-12540674D01*
X11065301Y-12540674D02*
X11046253Y-12531150D01*
X11046253Y-12531150D02*
X11017682Y-12531150D01*
X11017682Y-12531150D02*
X10998634Y-12540674D01*
X10998634Y-12540674D02*
X10989111Y-12550198D01*
X11198634Y-12664484D02*
X11179587Y-12654960D01*
X11179587Y-12654960D02*
X11170063Y-12645436D01*
X11170063Y-12645436D02*
X11160539Y-12626388D01*
X11160539Y-12626388D02*
X11160539Y-12569246D01*
X11160539Y-12569246D02*
X11170063Y-12550198D01*
X11170063Y-12550198D02*
X11179587Y-12540674D01*
X11179587Y-12540674D02*
X11198634Y-12531150D01*
X11198634Y-12531150D02*
X11227206Y-12531150D01*
X11227206Y-12531150D02*
X11246253Y-12540674D01*
X11246253Y-12540674D02*
X11255777Y-12550198D01*
X11255777Y-12550198D02*
X11265301Y-12569246D01*
X11265301Y-12569246D02*
X11265301Y-12626388D01*
X11265301Y-12626388D02*
X11255777Y-12645436D01*
X11255777Y-12645436D02*
X11246253Y-12654960D01*
X11246253Y-12654960D02*
X11227206Y-12664484D01*
X11227206Y-12664484D02*
X11198634Y-12664484D01*
X11379587Y-12664484D02*
X11360539Y-12654960D01*
X11360539Y-12654960D02*
X11351015Y-12635912D01*
X11351015Y-12635912D02*
X11351015Y-12464484D01*
X11531968Y-12654960D02*
X11512920Y-12664484D01*
X11512920Y-12664484D02*
X11474825Y-12664484D01*
X11474825Y-12664484D02*
X11455777Y-12654960D01*
X11455777Y-12654960D02*
X11446253Y-12635912D01*
X11446253Y-12635912D02*
X11446253Y-12559722D01*
X11446253Y-12559722D02*
X11455777Y-12540674D01*
X11455777Y-12540674D02*
X11474825Y-12531150D01*
X11474825Y-12531150D02*
X11512920Y-12531150D01*
X11512920Y-12531150D02*
X11531968Y-12540674D01*
X11531968Y-12540674D02*
X11541491Y-12559722D01*
X11541491Y-12559722D02*
X11541491Y-12578769D01*
X11541491Y-12578769D02*
X11446253Y-12597817D01*
X11617682Y-12654960D02*
X11636730Y-12664484D01*
X11636730Y-12664484D02*
X11674825Y-12664484D01*
X11674825Y-12664484D02*
X11693872Y-12654960D01*
X11693872Y-12654960D02*
X11703396Y-12635912D01*
X11703396Y-12635912D02*
X11703396Y-12626388D01*
X11703396Y-12626388D02*
X11693872Y-12607341D01*
X11693872Y-12607341D02*
X11674825Y-12597817D01*
X11674825Y-12597817D02*
X11646253Y-12597817D01*
X11646253Y-12597817D02*
X11627206Y-12588293D01*
X11627206Y-12588293D02*
X11617682Y-12569246D01*
X11617682Y-12569246D02*
X11617682Y-12559722D01*
X11617682Y-12559722D02*
X11627206Y-12540674D01*
X11627206Y-12540674D02*
X11646253Y-12531150D01*
X11646253Y-12531150D02*
X11674825Y-12531150D01*
X11674825Y-12531150D02*
X11693872Y-12540674D01*
X11770063Y-12740674D02*
X11779587Y-12731150D01*
X11779587Y-12731150D02*
X11798634Y-12702579D01*
X11798634Y-12702579D02*
X11808158Y-12683531D01*
X11808158Y-12683531D02*
X11817682Y-12654960D01*
X11817682Y-12654960D02*
X11827206Y-12607341D01*
X11827206Y-12607341D02*
X11827206Y-12569246D01*
X11827206Y-12569246D02*
X11817682Y-12521627D01*
X11817682Y-12521627D02*
X11808158Y-12493055D01*
X11808158Y-12493055D02*
X11798634Y-12474008D01*
X11798634Y-12474008D02*
X11779587Y-12445436D01*
X11779587Y-12445436D02*
X11770063Y-12435912D01*
M02*
