%TF.GenerationSoftware,KiCad,Pcbnew,7.0.7*%
%TF.CreationDate,2024-07-20T22:06:26+09:00*%
%TF.ProjectId,l298n_copy,6c323938-6e5f-4636-9f70-792e6b696361,rev?*%
%TF.SameCoordinates,Original*%
%TF.FileFunction,Copper,L1,Top*%
%TF.FilePolarity,Positive*%
%FSLAX46Y46*%
G04 Gerber Fmt 4.6, Leading zero omitted, Abs format (unit mm)*
G04 Created by KiCad (PCBNEW 7.0.7) date 2024-07-20 22:06:26*
%MOMM*%
%LPD*%
G01*
G04 APERTURE LIST*
G04 Aperture macros list*
%AMRoundRect*
0 Rectangle with rounded corners*
0 $1 Rounding radius*
0 $2 $3 $4 $5 $6 $7 $8 $9 X,Y pos of 4 corners*
0 Add a 4 corners polygon primitive as box body*
4,1,4,$2,$3,$4,$5,$6,$7,$8,$9,$2,$3,0*
0 Add four circle primitives for the rounded corners*
1,1,$1+$1,$2,$3*
1,1,$1+$1,$4,$5*
1,1,$1+$1,$6,$7*
1,1,$1+$1,$8,$9*
0 Add four rect primitives between the rounded corners*
20,1,$1+$1,$2,$3,$4,$5,0*
20,1,$1+$1,$4,$5,$6,$7,0*
20,1,$1+$1,$6,$7,$8,$9,0*
20,1,$1+$1,$8,$9,$2,$3,0*%
G04 Aperture macros list end*
%TA.AperFunction,ComponentPad*%
%ADD10R,2.100000X2.100000*%
%TD*%
%TA.AperFunction,ComponentPad*%
%ADD11C,2.100000*%
%TD*%
%TA.AperFunction,SMDPad,CuDef*%
%ADD12RoundRect,0.250000X-0.650000X1.000000X-0.650000X-1.000000X0.650000X-1.000000X0.650000X1.000000X0*%
%TD*%
%TA.AperFunction,SMDPad,CuDef*%
%ADD13RoundRect,0.250000X-1.000000X1.750000X-1.000000X-1.750000X1.000000X-1.750000X1.000000X1.750000X0*%
%TD*%
%TA.AperFunction,ComponentPad*%
%ADD14O,1.700000X1.700000*%
%TD*%
%TA.AperFunction,ComponentPad*%
%ADD15R,1.700000X1.700000*%
%TD*%
%TA.AperFunction,SMDPad,CuDef*%
%ADD16RoundRect,0.200000X-0.200000X-0.275000X0.200000X-0.275000X0.200000X0.275000X-0.200000X0.275000X0*%
%TD*%
%TA.AperFunction,SMDPad,CuDef*%
%ADD17RoundRect,0.200000X0.275000X-0.200000X0.275000X0.200000X-0.275000X0.200000X-0.275000X-0.200000X0*%
%TD*%
%TA.AperFunction,SMDPad,CuDef*%
%ADD18R,0.950000X2.150000*%
%TD*%
%TA.AperFunction,SMDPad,CuDef*%
%ADD19R,3.250000X2.150000*%
%TD*%
%TA.AperFunction,ComponentPad*%
%ADD20R,1.800000X1.800000*%
%TD*%
%TA.AperFunction,ComponentPad*%
%ADD21O,1.800000X1.800000*%
%TD*%
%TA.AperFunction,ViaPad*%
%ADD22C,0.800000*%
%TD*%
%TA.AperFunction,Conductor*%
%ADD23C,1.500000*%
%TD*%
%TA.AperFunction,Conductor*%
%ADD24C,0.250000*%
%TD*%
G04 APERTURE END LIST*
D10*
%TO.P,J2,1,1*%
%TO.N,Net-(D3-A)*%
X82930000Y-109560000D03*
D11*
%TO.P,J2,2,2*%
%TO.N,Net-(D4-A)*%
X87930000Y-109560000D03*
%TD*%
D12*
%TO.P,D4,1,K*%
%TO.N,VCC*%
X105120000Y-72510000D03*
%TO.P,D4,2,A*%
%TO.N,Net-(D4-A)*%
X105120000Y-76510000D03*
%TD*%
%TO.P,D2,1,K*%
%TO.N,VCC*%
X98060000Y-72530000D03*
%TO.P,D2,2,A*%
%TO.N,Net-(D2-A)*%
X98060000Y-76530000D03*
%TD*%
D13*
%TO.P,C2,1*%
%TO.N,VCC*%
X89860000Y-81537500D03*
%TO.P,C2,2*%
%TO.N,GND*%
X89860000Y-89537500D03*
%TD*%
D14*
%TO.P,J6,2,Pin_2*%
%TO.N,Net-(J6-Pin_2)*%
X72660000Y-92670000D03*
D15*
%TO.P,J6,1,Pin_1*%
%TO.N,+5V*%
X75200000Y-92670000D03*
%TD*%
%TO.P,J4,1,Pin_1*%
%TO.N,Net-(J4-Pin_1)*%
X81640000Y-84035000D03*
D14*
%TO.P,J4,2,Pin_2*%
%TO.N,VCC*%
X81640000Y-81495000D03*
%TD*%
D10*
%TO.P,J1,1,1*%
%TO.N,Net-(D1-A)*%
X87560000Y-74327500D03*
D11*
%TO.P,J1,2,2*%
%TO.N,Net-(D2-A)*%
X82560000Y-74327500D03*
%TD*%
D12*
%TO.P,D1,1,K*%
%TO.N,VCC*%
X101580000Y-72550000D03*
%TO.P,D1,2,A*%
%TO.N,Net-(D1-A)*%
X101580000Y-76550000D03*
%TD*%
D15*
%TO.P,J7,1,Pin_1*%
%TO.N,Net-(J7-Pin_1)*%
X72660000Y-95610000D03*
D14*
%TO.P,J7,2,Pin_2*%
%TO.N,Net-(J7-Pin_2)*%
X72660000Y-98150000D03*
%TO.P,J7,3,Pin_3*%
%TO.N,Net-(J7-Pin_3)*%
X72660000Y-100690000D03*
%TO.P,J7,4,Pin_4*%
%TO.N,Net-(J7-Pin_4)*%
X72660000Y-103230000D03*
%TD*%
D16*
%TO.P,D9,1,K*%
%TO.N,GND*%
X79795000Y-90480000D03*
%TO.P,D9,2,A*%
%TO.N,Net-(D9-A)*%
X81445000Y-90480000D03*
%TD*%
D17*
%TO.P,R1,1*%
%TO.N,+5V*%
X82700000Y-88645000D03*
%TO.P,R1,2*%
%TO.N,Net-(D9-A)*%
X82700000Y-86995000D03*
%TD*%
D12*
%TO.P,D3,1,K*%
%TO.N,VCC*%
X94520000Y-72520000D03*
%TO.P,D3,2,A*%
%TO.N,Net-(D3-A)*%
X94520000Y-76520000D03*
%TD*%
%TO.P,D7,1,K*%
%TO.N,Net-(D3-A)*%
X97720000Y-107390000D03*
%TO.P,D7,2,A*%
%TO.N,GND*%
X97720000Y-111390000D03*
%TD*%
D13*
%TO.P,C1,1*%
%TO.N,+5V*%
X82260000Y-95067500D03*
%TO.P,C1,2*%
%TO.N,GND*%
X82260000Y-103067500D03*
%TD*%
D15*
%TO.P,J5,1,Pin_1*%
%TO.N,Net-(J5-Pin_1)*%
X72660000Y-106410000D03*
D14*
%TO.P,J5,2,Pin_2*%
%TO.N,+5V*%
X75200000Y-106410000D03*
%TD*%
D18*
%TO.P,U2,1,INPUT*%
%TO.N,Net-(J4-Pin_1)*%
X93975000Y-95900000D03*
%TO.P,U2,2,COMMON*%
%TO.N,GND*%
X91675000Y-95900000D03*
%TO.P,U2,3,OUTPUT*%
%TO.N,+5V*%
X89375000Y-95900000D03*
D19*
%TO.P,U2,4,COMMON*%
%TO.N,GND*%
X91675000Y-101700000D03*
%TD*%
D12*
%TO.P,D6,1,K*%
%TO.N,Net-(D2-A)*%
X94200000Y-107382500D03*
%TO.P,D6,2,A*%
%TO.N,GND*%
X94200000Y-111382500D03*
%TD*%
D10*
%TO.P,J3,1,1*%
%TO.N,VCC*%
X74920000Y-78040000D03*
D11*
%TO.P,J3,2,2*%
%TO.N,GND*%
X74920000Y-83040000D03*
%TO.P,J3,3,3*%
%TO.N,+5V*%
X74920000Y-88040000D03*
%TD*%
D12*
%TO.P,D5,1,K*%
%TO.N,Net-(D1-A)*%
X104850000Y-107380000D03*
%TO.P,D5,2,A*%
%TO.N,GND*%
X104850000Y-111380000D03*
%TD*%
%TO.P,D8,1,K*%
%TO.N,Net-(D4-A)*%
X101300000Y-107382500D03*
%TO.P,D8,2,A*%
%TO.N,GND*%
X101300000Y-111382500D03*
%TD*%
D20*
%TO.P,U1,1,SENSE_A*%
%TO.N,GND*%
X97390000Y-83710000D03*
D21*
%TO.P,U1,2,OUT1*%
%TO.N,Net-(D1-A)*%
X102470000Y-84980000D03*
%TO.P,U1,3,OUT2*%
%TO.N,Net-(D2-A)*%
X97390000Y-86250000D03*
%TO.P,U1,4,Vs*%
%TO.N,VCC*%
X102470000Y-87520000D03*
%TO.P,U1,5,IN1*%
%TO.N,Net-(J7-Pin_1)*%
X97390000Y-88790000D03*
%TO.P,U1,6,EnA*%
%TO.N,Net-(J6-Pin_2)*%
X102470000Y-90060000D03*
%TO.P,U1,7,IN2*%
%TO.N,Net-(J7-Pin_2)*%
X97390000Y-91330000D03*
%TO.P,U1,8,GND*%
%TO.N,GND*%
X102470000Y-92600000D03*
%TO.P,U1,9,Vss*%
%TO.N,+5V*%
X97390000Y-93870000D03*
%TO.P,U1,10,IN3*%
%TO.N,Net-(J7-Pin_3)*%
X102470000Y-95140000D03*
%TO.P,U1,11,EnB*%
%TO.N,Net-(J5-Pin_1)*%
X97390000Y-96410000D03*
%TO.P,U1,12,IN4*%
%TO.N,Net-(J7-Pin_4)*%
X102470000Y-97680000D03*
%TO.P,U1,13,OUT3*%
%TO.N,Net-(D3-A)*%
X97390000Y-98950000D03*
%TO.P,U1,14,OUT4*%
%TO.N,Net-(D4-A)*%
X102470000Y-100220000D03*
%TO.P,U1,15,SENSE_B*%
%TO.N,GND*%
X97390000Y-101490000D03*
%TD*%
D22*
%TO.N,VCC*%
X109340000Y-87330000D03*
X109300000Y-81520000D03*
%TO.N,Net-(J7-Pin_2)*%
X84860000Y-97560000D03*
X84910000Y-93550000D03*
%TO.N,+5V*%
X82700000Y-88645000D03*
X82260000Y-95067500D03*
%TO.N,GND*%
X79100000Y-103020000D03*
X100400000Y-86180000D03*
X89640000Y-84610000D03*
X89860000Y-89537500D03*
X91675000Y-95900000D03*
X90430000Y-101680000D03*
%TO.N,+5V*%
X75290000Y-96920000D03*
%TO.N,GND*%
X79795000Y-90480000D03*
%TO.N,Net-(D9-A)*%
X81540000Y-87080000D03*
X81445000Y-90480000D03*
%TO.N,Net-(J4-Pin_1)*%
X86910000Y-97630000D03*
X86250000Y-84170000D03*
%TO.N,Net-(J5-Pin_1)*%
X100940000Y-104350000D03*
%TO.N,Net-(D2-A)*%
X94200000Y-107382500D03*
X92790000Y-86270000D03*
%TO.N,Net-(D3-A)*%
X97720000Y-107390000D03*
X94520000Y-76520020D03*
%TO.N,Net-(D2-A)*%
X98060000Y-76530000D03*
%TO.N,Net-(D1-A)*%
X107090000Y-84990000D03*
X104850000Y-107380000D03*
X101520000Y-76520000D03*
%TO.N,Net-(D4-A)*%
X101300000Y-107382500D03*
X105060000Y-76480000D03*
X105060003Y-99929997D03*
%TD*%
D23*
%TO.N,VCC*%
X102660000Y-87330000D02*
X102470000Y-87520000D01*
X109340000Y-87330000D02*
X102660000Y-87330000D01*
X109282500Y-81537500D02*
X109300000Y-81520000D01*
X89860000Y-81537500D02*
X109282500Y-81537500D01*
X81640000Y-78170000D02*
X81510000Y-78040000D01*
X81640000Y-81495000D02*
X81640000Y-78170000D01*
X81510000Y-78040000D02*
X89590000Y-78040000D01*
X74920000Y-78040000D02*
X81510000Y-78040000D01*
X89860000Y-78310000D02*
X89620000Y-78070000D01*
X89860000Y-81537500D02*
X89860000Y-78310000D01*
X94520000Y-73170000D02*
X94520000Y-72520000D01*
X89590000Y-78040000D02*
X89620000Y-78070000D01*
X89620000Y-78070000D02*
X94520000Y-73170000D01*
D24*
%TO.N,+5V*%
X97160000Y-94100000D02*
X97390000Y-93870000D01*
X91175000Y-94100000D02*
X97160000Y-94100000D01*
X89375000Y-95900000D02*
X91175000Y-94100000D01*
%TO.N,Net-(J7-Pin_2)*%
X95300000Y-93420000D02*
X97390000Y-91330000D01*
X85040000Y-93420000D02*
X95300000Y-93420000D01*
X84910000Y-93550000D02*
X85040000Y-93420000D01*
%TO.N,+5V*%
X83092500Y-95900000D02*
X89375000Y-95900000D01*
X82260000Y-95067500D02*
X83092500Y-95900000D01*
%TO.N,Net-(J7-Pin_2)*%
X84270000Y-98150000D02*
X84860000Y-97560000D01*
X72660000Y-98150000D02*
X84270000Y-98150000D01*
D23*
%TO.N,GND*%
X79147500Y-103067500D02*
X79100000Y-103020000D01*
X82260000Y-103067500D02*
X79147500Y-103067500D01*
X97930000Y-83710000D02*
X100400000Y-86180000D01*
X97390000Y-83710000D02*
X97930000Y-83710000D01*
X89640000Y-84610000D02*
X89700000Y-84550000D01*
X96550000Y-84550000D02*
X97390000Y-83710000D01*
X89700000Y-84550000D02*
X96550000Y-84550000D01*
X90450000Y-101700000D02*
X90430000Y-101680000D01*
X91675000Y-101700000D02*
X90450000Y-101700000D01*
X85885000Y-103067500D02*
X82260000Y-103067500D01*
X94200000Y-111382500D02*
X85885000Y-103067500D01*
X106710000Y-105892944D02*
X106710000Y-109520000D01*
X102887056Y-102070000D02*
X106710000Y-105892944D01*
X97970000Y-102070000D02*
X102887056Y-102070000D01*
X97390000Y-101490000D02*
X97970000Y-102070000D01*
X106710000Y-109520000D02*
X104850000Y-111380000D01*
X97180000Y-101700000D02*
X97390000Y-101490000D01*
X91675000Y-101700000D02*
X97180000Y-101700000D01*
D24*
%TO.N,+5V*%
X80407500Y-96920000D02*
X82260000Y-95067500D01*
X75290000Y-96920000D02*
X80407500Y-96920000D01*
%TO.N,Net-(D9-A)*%
X81625000Y-86995000D02*
X81540000Y-87080000D01*
X82700000Y-86995000D02*
X81625000Y-86995000D01*
%TO.N,Net-(J4-Pin_1)*%
X92245000Y-97630000D02*
X93975000Y-95900000D01*
X86115000Y-84035000D02*
X86250000Y-84170000D01*
X86910000Y-97630000D02*
X92245000Y-97630000D01*
X81640000Y-84035000D02*
X86115000Y-84035000D01*
%TO.N,Net-(J5-Pin_1)*%
X90975000Y-104350000D02*
X100940000Y-104350000D01*
X78327500Y-100742500D02*
X87367500Y-100742500D01*
X87367500Y-100742500D02*
X90975000Y-104350000D01*
X72660000Y-106410000D02*
X78327500Y-100742500D01*
%TO.N,Net-(J6-Pin_2)*%
X99975000Y-87565000D02*
X102470000Y-90060000D01*
X96882588Y-87565000D02*
X99975000Y-87565000D01*
X92287588Y-92160000D02*
X96882588Y-87565000D01*
X73835000Y-91495000D02*
X76375000Y-91495000D01*
X76375000Y-91495000D02*
X77040000Y-92160000D01*
X77040000Y-92160000D02*
X92287588Y-92160000D01*
X72660000Y-92670000D02*
X73835000Y-91495000D01*
%TO.N,Net-(J7-Pin_1)*%
X93550000Y-92630000D02*
X97390000Y-88790000D01*
X80110000Y-92630000D02*
X93550000Y-92630000D01*
X77130000Y-95610000D02*
X80110000Y-92630000D01*
X72660000Y-95610000D02*
X77130000Y-95610000D01*
%TO.N,Net-(J7-Pin_3)*%
X99885000Y-97725000D02*
X102470000Y-95140000D01*
X96065000Y-97725000D02*
X99885000Y-97725000D01*
X95190000Y-98600000D02*
X96065000Y-97725000D01*
X74750000Y-98600000D02*
X95190000Y-98600000D01*
X72660000Y-100690000D02*
X74750000Y-98600000D01*
%TO.N,Net-(J7-Pin_4)*%
X99885000Y-100265000D02*
X102470000Y-97680000D01*
X75625000Y-100265000D02*
X99885000Y-100265000D01*
X72660000Y-103230000D02*
X75625000Y-100265000D01*
D23*
%TO.N,Net-(D2-A)*%
X92810000Y-86250000D02*
X92790000Y-86270000D01*
X97390000Y-86250000D02*
X92810000Y-86250000D01*
%TO.N,Net-(D1-A)*%
X107080000Y-84980000D02*
X107090000Y-84990000D01*
X102470000Y-84980000D02*
X107080000Y-84980000D01*
%TO.N,Net-(D4-A)*%
X104770000Y-100220000D02*
X105060003Y-99929997D01*
X102470000Y-100220000D02*
X104770000Y-100220000D01*
%TO.N,VCC*%
X105020000Y-72520000D02*
X105060000Y-72480000D01*
X94520000Y-72520000D02*
X105020000Y-72520000D01*
%TO.N,GND*%
X104847500Y-111382500D02*
X104850000Y-111380000D01*
X94200000Y-111382500D02*
X104847500Y-111382500D01*
%TD*%
M02*
