M48
; DRILL file {KiCad 7.0.7} date Sat Jul 20 22:06:37 2024
; FORMAT={-:-/ absolute / inch / decimal}
; #@! TF.CreationDate,2024-07-20T22:06:37+09:00
; #@! TF.GenerationSoftware,Kicad,Pcbnew,7.0.7
; #@! TF.FileFunction,Plated,1,2,PTH
FMAT,2
INCH
; #@! TA.AperFunction,Plated,PTH,ViaDrill
T1C0.0157
; #@! TA.AperFunction,Plated,PTH,ComponentDrill
T2C0.0394
; #@! TA.AperFunction,Plated,PTH,ComponentDrill
T3C0.0551
%
G90
G05
T1
X2.9642Y-3.8157
X3.1142Y-4.0559
X3.1415Y-3.5622
X3.2065Y-3.5622
X3.2102Y-3.4283
X3.2386Y-3.7428
X3.2559Y-3.49
X3.3409Y-3.8409
X3.3429Y-3.6831
X3.3957Y-3.3138
X3.4217Y-3.8437
X3.5291Y-3.3311
X3.5378Y-3.5251
X3.5602Y-4.0031
X3.6093Y-3.7756
X3.6531Y-3.3965
X3.7087Y-4.2277
X3.7213Y-3.0126
X3.8472Y-4.228
X3.8606Y-3.013
X3.9528Y-3.3929
X3.974Y-4.1083
X3.9882Y-4.2277
X3.9969Y-3.0126
X4.128Y-4.2276
X4.1362Y-3.011
X4.1362Y-3.9343
X4.2161Y-3.3461
X4.3031Y-3.2094
X4.3047Y-3.4382
T2
X2.8606Y-3.6484
X2.8606Y-3.7642
X2.8606Y-3.8642
X2.8606Y-3.9642
X2.8606Y-4.0642
X2.8606Y-4.1894
X2.9606Y-3.6484
X2.9606Y-4.1894
X3.2142Y-3.2085
X3.2142Y-3.3085
X3.8343Y-3.2957
X3.8343Y-3.3957
X3.8343Y-3.4957
X3.8343Y-3.5957
X3.8343Y-3.6957
X3.8343Y-3.7957
X3.8343Y-3.8957
X3.8343Y-3.9957
X4.0343Y-3.3457
X4.0343Y-3.4457
X4.0343Y-3.5457
X4.0343Y-3.6457
X4.0343Y-3.7457
X4.0343Y-3.8457
X4.0343Y-3.9457
T3
X2.9496Y-3.0724
X2.9496Y-3.2693
X2.9496Y-3.4661
X3.2504Y-2.9263
X3.265Y-4.3134
X3.4472Y-2.9263
X3.4618Y-4.3134
T0
M30
